<?xml version="1.0" encoding="UTF-8" standalone="no"?>
<!-- Generator: Adobe Illustrator 18.0.0, SVG Export Plug-In . SVG Version: 6.00 Build 0)  -->

<svg
   xmlns:dc="http://purl.org/dc/elements/1.1/"
   xmlns:cc="http://creativecommons.org/ns#"
   xmlns:rdf="http://www.w3.org/1999/02/22-rdf-syntax-ns#"
   xmlns:svg="http://www.w3.org/2000/svg"
   xmlns="http://www.w3.org/2000/svg"
   xmlns:sodipodi="http://sodipodi.sourceforge.net/DTD/sodipodi-0.dtd"
   xmlns:inkscape="http://www.inkscape.org/namespaces/inkscape"
   version="1.1"
   id="Capa_1"
   x="0px"
   y="0px"
   viewBox="0 0 91.540208 54.097653"
   xml:space="preserve"
   sodipodi:docname="cloud.svg"
   width="91.540207"
   height="54.097652"
   inkscape:version="0.92.3 (2405546, 2018-03-11)"><metadata
   id="metadata11"><rdf:RDF><cc:Work
       rdf:about=""><dc:format>image/svg+xml</dc:format><dc:type
         rdf:resource="http://purl.org/dc/dcmitype/StillImage" /><dc:title></dc:title></cc:Work></rdf:RDF></metadata><defs
   id="defs9" /><sodipodi:namedview
   pagecolor="#ffffff"
   bordercolor="#666666"
   borderopacity="1"
   objecttolerance="10"
   gridtolerance="10"
   guidetolerance="10"
   inkscape:pageopacity="0"
   inkscape:pageshadow="2"
   inkscape:window-width="1920"
   inkscape:window-height="1025"
   id="namedview7"
   showgrid="false"
   fit-margin-top="0"
   fit-margin-left="0"
   fit-margin-right="0"
   fit-margin-bottom="0"
   inkscape:zoom="2.070121"
   inkscape:cx="45.769756"
   inkscape:cy="-2.9036551"
   inkscape:window-x="0"
   inkscape:window-y="0"
   inkscape:window-maximized="1"
   inkscape:current-layer="Capa_1" />
<g
   id="g4"
   transform="translate(-11.231743,-1.9290253e-4)">
	<path
   style="fill:#1d1d1b"
   d="M 102.729,41.428 C 102.027,32.112 90.84,26.517 84.35,32.082 84.854,30.046 84.475,27.872 82.661,26.374 80.633,24.7 77.921,24.846 75.982,26.259 79.017,11.742 67.646,-2.217 52.176,0.295 45.337,1.405 38.547,5.252 35.088,11.409 32.341,16.299 32.1,22.329 34.769,27.131 28.794,21.505 18.47,24.442 14.153,31.33 c -4.915,7.841 -4.318,21.933 7.154,22.716 3.667,0.25 7.383,-0.479 11.049,-0.598 4.499,-0.146 9.009,-0.068 13.509,-0.072 8.527,-0.009 17.055,-0.019 25.582,-0.028 9.289,-0.011 32.455,3.628 31.282,-11.92 z m -2.301,6.089 c -2.209,3.36 -6.418,4.435 -10.171,4.747 -6.733,0.558 -13.656,0.12 -20.41,0.127 -6.928,0.007 -13.857,0.015 -20.785,0.022 -6.861,0.008 -13.794,-0.267 -20.638,0.297 -2.901,0.239 -5.979,0.815 -8.864,0.17 -4.619,-1.033 -6.881,-4.761 -7.344,-9.208 -0.64,-6.148 2.002,-13.165 7.319,-16.594 5.498,-3.546 12.912,-2.24 16.756,3.04 0.248,0.341 0.801,0.042 0.578,-0.338 C 36.85,29.749 36.83,29.721 36.812,29.691 36.97,29.627 37.088,29.443 36.969,29.278 27.971,16.863 39.567,3.33 52.373,1.266 c 15.355,-2.475 26.389,11.933 22.292,26.369 -0.157,0.553 0.569,0.785 0.874,0.368 2.188,-2.986 6.701,-2.24 7.886,1.266 0.726,2.149 -0.478,4.554 -1.98,5.98 -0.253,0.24 -0.142,0.555 0.08,0.711 -0.094,0.496 0.617,0.871 0.86,0.357 3.117,-6.594 11.784,-7.259 16.454,-1.926 2.946,3.362 4.166,9.207 1.589,13.126 z"
   id="path2"
   inkscape:connector-curvature="0" />

</g>

</svg>