<?xml version="1.0" encoding="iso-8859-1"?>
<!-- Generator: Adobe Illustrator 18.0.0, SVG Export Plug-In . SVG Version: 6.00 Build 0)  -->
<!DOCTYPE svg PUBLIC "-//W3C//DTD SVG 1.1//EN" "http://www.w3.org/Graphics/SVG/1.1/DTD/svg11.dtd">
<svg version="1.1" id="Capa_1" xmlns="http://www.w3.org/2000/svg" xmlns:xlink="http://www.w3.org/1999/xlink" x="0px" y="0px"
	 viewBox="0 0 114.003 114.003" style="enable-background:new 0 0 114.003 114.003;" xml:space="preserve">
<g>
	<path style="fill:#1D1D1B;" d="M102.729,41.428c-0.702-9.316-11.889-14.911-18.379-9.346c0.504-2.036,0.125-4.21-1.689-5.708
		c-2.028-1.674-4.74-1.528-6.679-0.115c3.035-14.517-8.336-28.476-23.806-25.964c-6.839,1.11-13.629,4.957-17.088,11.114
		c-2.747,4.89-2.988,10.92-0.319,15.722c-5.975-5.626-16.299-2.689-20.616,4.199c-4.915,7.841-4.318,21.933,7.154,22.716
		c3.667,0.25,7.383-0.479,11.049-0.598c4.499-0.146,9.009-0.068,13.509-0.072c8.527-0.009,17.055-0.019,25.582-0.028
		C80.736,53.337,103.902,56.976,102.729,41.428z M100.428,47.517c-2.209,3.36-6.418,4.435-10.171,4.747
		c-6.733,0.558-13.656,0.12-20.41,0.127c-6.928,0.007-13.857,0.015-20.785,0.022c-6.861,0.008-13.794-0.267-20.638,0.297
		c-2.901,0.239-5.979,0.815-8.864,0.17c-4.619-1.033-6.881-4.761-7.344-9.208c-0.64-6.148,2.002-13.165,7.319-16.594
		c5.498-3.546,12.912-2.24,16.756,3.04c0.248,0.341,0.801,0.042,0.578-0.338c-0.019-0.031-0.039-0.059-0.057-0.089
		c0.158-0.064,0.276-0.248,0.157-0.413C27.971,16.863,39.567,3.33,52.373,1.266c15.355-2.475,26.389,11.933,22.292,26.369
		c-0.157,0.553,0.569,0.785,0.874,0.368c2.188-2.986,6.701-2.24,7.886,1.266c0.726,2.149-0.478,4.554-1.98,5.98
		c-0.253,0.24-0.142,0.555,0.08,0.711c-0.094,0.496,0.617,0.871,0.86,0.357c3.117-6.594,11.784-7.259,16.454-1.926
		C101.785,37.753,103.005,43.598,100.428,47.517z"/>
	<path style="fill:#1D1D1B;" d="M68.953,98.133c-1.872,1.412-3.751,2.814-5.606,4.249c0-0.007,0.004-0.012,0.004-0.02
		c0.029-8.04,1.087-16.823-0.171-24.771c0.017-0.009,0.036-0.01,0.053-0.02c0.212-0.126,0.212-0.438,0-0.564
		c-0.562-0.335-1.288-0.195-1.924-0.19c-0.722,0.006-1.432,0.02-2.145,0.135c-0.117,0.019-0.191,0.103-0.226,0.203
		c-0.146,0.027-0.271,0.135-0.271,0.336c0.014,8.021,0.182,16.343,1.027,24.34c-1.671-1.359-3.387-2.649-5.104-3.957
		c-0.396-0.302-0.793,0.26-0.619,0.62c2.458,5.097,4.926,10.188,7.391,15.282c0.157,0.324,0.641,0.285,0.808,0
		c2.848-4.851,5.991-9.628,7.476-15.108C69.745,98.304,69.298,97.873,68.953,98.133z M55.58,99.736
		c1.367,1.009,2.751,1.978,4.195,2.886c0.005,0.049,0.009,0.098,0.015,0.146c0.043,0.385,0.542,0.451,0.672,0.15
		c0.143-0.074,0.226-0.272,0.076-0.399c-0.013-0.011-0.027-0.022-0.041-0.034c0.186-8.19-0.391-16.675-1.094-24.835
		c0.633,0.083,1.265,0.106,1.906,0.11c0.472,0.004,0.993,0.08,1.46-0.017c-1.271,7.897-0.281,16.628-0.302,24.618
		c-0.001,0.347,0.327,0.48,0.583,0.403c-0.024,0.332,0.374,0.708,0.702,0.465c1.527-1.126,3.037-2.276,4.547-3.425
		c-1.497,4.542-4.065,8.641-6.494,12.747C59.732,108.28,57.658,104.007,55.58,99.736z"/>
</g>
<g>
</g>
<g>
</g>
<g>
</g>
<g>
</g>
<g>
</g>
<g>
</g>
<g>
</g>
<g>
</g>
<g>
</g>
<g>
</g>
<g>
</g>
<g>
</g>
<g>
</g>
<g>
</g>
<g>
</g>
</svg>
